<?xml version="1.0" encoding="utf-8"?>
<!-- Generator: Adobe Illustrator 22.1.0, SVG Export Plug-In . SVG Version: 6.00 Build 0)  -->
<svg version="1.1" id="Ebene_1" xmlns="http://www.w3.org/2000/svg" xmlns:xlink="http://www.w3.org/1999/xlink" x="0px" y="0px"
	 viewBox="0 0 666.1 212.6" style="enable-background:new 0 0 666.1 212.6;" xml:space="preserve">
<style type="text/css">
	.st0{fill:#981711;}
	.st1{fill:url(#SVGID_1_);}
	.st2{fill:url(#SVGID_2_);}
	.st3{fill:url(#SVGID_3_);}
	.st4{fill:url(#SVGID_4_);}
	.st5{fill:url(#SVGID_5_);}
	.st6{fill:url(#SVGID_6_);}
	.st7{fill:url(#SVGID_7_);}
	.st8{fill:url(#SVGID_8_);}
	.st9{fill:url(#SVGID_9_);}
	.st10{fill:url(#SVGID_10_);}
	.st11{fill:url(#SVGID_11_);}
	.st12{fill-rule:evenodd;clip-rule:evenodd;fill:#981711;}
	.st13{fill:url(#SVGID_12_);}
	.st14{fill:url(#SVGID_13_);}
	.st15{fill:url(#SVGID_14_);}
	.st16{fill:url(#SVGID_15_);}
	.st17{fill:url(#SVGID_16_);}
</style>
<g>
	<polygon class="st0" points="204.6,114.2 168.5,114.2 168.5,53.2 164,48.1 183.5,48.1 183.5,98.9 204.6,98.9 	"/>
	<linearGradient id="SVGID_1_" gradientUnits="userSpaceOnUse" x1="161.8223" y1="81.1553" x2="205.6021" y2="81.1553">
		<stop  offset="0" style="stop-color:#EEEBE9"/>
		<stop  offset="0" style="stop-color:#E7E3E0"/>
		<stop  offset="6.164776e-02" style="stop-color:#D9D5D4"/>
		<stop  offset="0.1794" style="stop-color:#B4B0B3"/>
		<stop  offset="0.264" style="stop-color:#989398"/>
		<stop  offset="0.5225" style="stop-color:#F8F8F8"/>
		<stop  offset="0.5875" style="stop-color:#E9E8E9"/>
		<stop  offset="0.7124" style="stop-color:#C3C0C3"/>
		<stop  offset="0.8764" style="stop-color:#8C878A"/>
		<stop  offset="1" style="stop-color:#DADADA"/>
		<stop  offset="1" style="stop-color:#B2B2B2"/>
	</linearGradient>
	<path class="st1" d="M167.5,115.2V53.6l-5.7-6.4h22.7v50.8h21.1v17.2L167.5,115.2z M166.3,49.1l3.2,3.7v60.4l34.1,0V99.9h-21.1
		V49.1H166.3z"/>
</g>
<g>
	<polygon class="st0" points="241.4,63 228.6,63 228.6,112.4 235.7,120.4 235.7,141.1 213,116.2 213,63 200.2,63 200.2,48.1 
		241.4,48.1 	"/>
	<linearGradient id="SVGID_2_" gradientUnits="userSpaceOnUse" x1="199.1929" y1="95.4118" x2="242.3916" y2="95.4118">
		<stop  offset="0" style="stop-color:#EEEBE9"/>
		<stop  offset="0" style="stop-color:#E7E3E0"/>
		<stop  offset="6.164776e-02" style="stop-color:#D9D5D4"/>
		<stop  offset="0.1794" style="stop-color:#B4B0B3"/>
		<stop  offset="0.264" style="stop-color:#989398"/>
		<stop  offset="0.5225" style="stop-color:#F8F8F8"/>
		<stop  offset="0.5875" style="stop-color:#E9E8E9"/>
		<stop  offset="0.7124" style="stop-color:#C3C0C3"/>
		<stop  offset="0.8764" style="stop-color:#8C878A"/>
		<stop  offset="1" style="stop-color:#DADADA"/>
		<stop  offset="1" style="stop-color:#B2B2B2"/>
	</linearGradient>
	<path class="st2" d="M236.7,143.7L212,116.6V64h-12.8V47.1h43.2V64h-12.8v48l7.2,8V143.7z M214,115.8l20.7,22.7v-17.8l-7.2-8V62
		h12.8V49.1h-39.2V62H214V115.8z"/>
</g>
<g>
	<polygon class="st0" points="329.6,98.9 356.7,98.9 348.1,86.2 364.5,86.2 370.9,96.4 358.9,114.2 326.4,114.2 314,96 348.5,45.6 
		357,59.8 	"/>
	<linearGradient id="SVGID_3_" gradientUnits="userSpaceOnUse" x1="312.7725" y1="79.4622" x2="372.1089" y2="79.4622">
		<stop  offset="0" style="stop-color:#EEEBE9"/>
		<stop  offset="0" style="stop-color:#E7E3E0"/>
		<stop  offset="6.164776e-02" style="stop-color:#D9D5D4"/>
		<stop  offset="0.1794" style="stop-color:#B4B0B3"/>
		<stop  offset="0.264" style="stop-color:#989398"/>
		<stop  offset="0.5225" style="stop-color:#F8F8F8"/>
		<stop  offset="0.5875" style="stop-color:#E9E8E9"/>
		<stop  offset="0.7124" style="stop-color:#C3C0C3"/>
		<stop  offset="0.8764" style="stop-color:#8C878A"/>
		<stop  offset="1" style="stop-color:#DADADA"/>
		<stop  offset="1" style="stop-color:#B2B2B2"/>
	</linearGradient>
	<path class="st3" d="M359.4,115.2h-33.6L312.8,96l35.8-52.3l9.6,16.1l-26.7,38.1h23.3l-8.5-12.7h18.8l7,11.2L359.4,115.2z
		 M326.9,113.2h31.4l11.4-16.9l-5.7-9.1h-14l8.5,12.7h-30.9l28.1-40.2l-7.3-12.3L315.2,96L326.9,113.2z"/>
</g>
<g>
	<polygon class="st0" points="372.3,48.2 376.8,53.2 376.8,101.6 376.8,114.3 410,114.3 410,98.6 391.7,98.6 391.7,88.9 410,88.9 
		410,73.6 391.7,73.6 391.7,63.3 410,63.3 410,48.2 389.9,48.2 	"/>
	<linearGradient id="SVGID_4_" gradientUnits="userSpaceOnUse" x1="370.0825" y1="81.2622" x2="411.0073" y2="81.2622">
		<stop  offset="0" style="stop-color:#EEEBE9"/>
		<stop  offset="0" style="stop-color:#E7E3E0"/>
		<stop  offset="6.164776e-02" style="stop-color:#D9D5D4"/>
		<stop  offset="0.1794" style="stop-color:#B4B0B3"/>
		<stop  offset="0.264" style="stop-color:#989398"/>
		<stop  offset="0.5225" style="stop-color:#F8F8F8"/>
		<stop  offset="0.5875" style="stop-color:#E9E8E9"/>
		<stop  offset="0.7124" style="stop-color:#C3C0C3"/>
		<stop  offset="0.8764" style="stop-color:#8C878A"/>
		<stop  offset="1" style="stop-color:#DADADA"/>
		<stop  offset="1" style="stop-color:#B2B2B2"/>
	</linearGradient>
	<path class="st4" d="M411,115.3h-35.2V53.5l-5.7-6.3H411v17.1h-18.3v8.2H411v17.3h-18.3v7.8H411V115.3z M377.8,113.3H409V99.6
		h-18.3V87.9H409V74.6h-18.3V62.3H409V49.2h-34.4l3.2,3.5V113.3z"/>
</g>
<g>
	<polygon class="st0" points="590.3,48.2 594.6,53 594.6,101.6 594.6,114.3 627.8,114.3 627.8,98.6 609.5,98.6 609.5,63.4 
		627.8,63.4 627.8,48.2 607.8,48.2 	"/>
	<linearGradient id="SVGID_5_" gradientUnits="userSpaceOnUse" x1="588.0005" y1="81.2622" x2="628.8306" y2="81.2622">
		<stop  offset="0" style="stop-color:#EEEBE9"/>
		<stop  offset="0" style="stop-color:#E7E3E0"/>
		<stop  offset="6.164776e-02" style="stop-color:#D9D5D4"/>
		<stop  offset="0.1794" style="stop-color:#B4B0B3"/>
		<stop  offset="0.264" style="stop-color:#989398"/>
		<stop  offset="0.5225" style="stop-color:#F8F8F8"/>
		<stop  offset="0.5875" style="stop-color:#E9E8E9"/>
		<stop  offset="0.7124" style="stop-color:#C3C0C3"/>
		<stop  offset="0.8764" style="stop-color:#8C878A"/>
		<stop  offset="1" style="stop-color:#DADADA"/>
		<stop  offset="1" style="stop-color:#B2B2B2"/>
	</linearGradient>
	<path class="st5" d="M628.8,115.3h-35.2l0-61.9l-5.6-6.2h40.8v17.2h-18.3v33.2h18.3V115.3z M595.6,113.3h31.2V99.6h-18.3V62.4h18.3
		V49.2h-34.3l3.1,3.4L595.6,113.3z"/>
</g>
<g>
	<path class="st0" d="M147.9,48.2H140h-13.5h-7.9l-8.8,12.7v22.8v15.5v2.3l8.8,12.7h7.9H140h7.9l8.8-12.7v-2.3V83.7V60.9L147.9,48.2
		z M141.8,98.6H140h-13.5h-1.8V63.4h1.8H140h1.8V98.6z"/>
	<linearGradient id="SVGID_6_" gradientUnits="userSpaceOnUse" x1="108.8706" y1="81.2622" x2="157.7329" y2="81.2622">
		<stop  offset="0" style="stop-color:#EEEBE9"/>
		<stop  offset="0" style="stop-color:#E7E3E0"/>
		<stop  offset="6.164776e-02" style="stop-color:#D9D5D4"/>
		<stop  offset="0.1794" style="stop-color:#B4B0B3"/>
		<stop  offset="0.264" style="stop-color:#989398"/>
		<stop  offset="0.5225" style="stop-color:#F8F8F8"/>
		<stop  offset="0.5875" style="stop-color:#E9E8E9"/>
		<stop  offset="0.7124" style="stop-color:#C3C0C3"/>
		<stop  offset="0.8764" style="stop-color:#8C878A"/>
		<stop  offset="1" style="stop-color:#DADADA"/>
		<stop  offset="1" style="stop-color:#B2B2B2"/>
	</linearGradient>
	<path class="st6" d="M148.4,115.3h-30.2l-9.3-13.4V60.6l9.3-13.4h30.2l9.3,13.4v41.3L148.4,115.3z M119.2,113.3h28.1l8.4-12v-40
		l-8.4-12h-28.1l-8.4,12v40L119.2,113.3z M142.8,99.6h-19V62.4h19V99.6z M125.8,97.6h15V64.4h-15V97.6z"/>
</g>
<g>
	<path class="st0" d="M283.3,114.1l7.6-11l7.6,11l18.8,0l-46.8-68.7l-34.9,50.7l12.6,17.9l31.9,0.1L283.3,114.1z M251.4,98.8
		l19-25.4l11.5,16.8l-6.2,8.7L251.4,98.8z"/>
	<linearGradient id="SVGID_7_" gradientUnits="userSpaceOnUse" x1="234.3052" y1="79.458" x2="319.1807" y2="79.458">
		<stop  offset="0" style="stop-color:#EEEBE9"/>
		<stop  offset="0" style="stop-color:#E7E3E0"/>
		<stop  offset="6.164776e-02" style="stop-color:#D9D5D4"/>
		<stop  offset="0.1794" style="stop-color:#B4B0B3"/>
		<stop  offset="0.264" style="stop-color:#989398"/>
		<stop  offset="0.5225" style="stop-color:#F8F8F8"/>
		<stop  offset="0.5875" style="stop-color:#E9E8E9"/>
		<stop  offset="0.7124" style="stop-color:#C3C0C3"/>
		<stop  offset="0.8764" style="stop-color:#8C878A"/>
		<stop  offset="1" style="stop-color:#DADADA"/>
		<stop  offset="1" style="stop-color:#B2B2B2"/>
	</linearGradient>
	<path class="st7" d="M319.2,115.2l-21.2,0l-7.1-10.2l-7.1,10.2l-36.2-0.1l-13.3-18.9l36.2-52.5L319.2,115.2z M299,113.2l16.4,0
		l-44.9-65.9l-33.7,48.9l11.9,16.9l34.1,0.1l8.1-11.7L299,113.2z M276.2,99.8l-26.9-0.1l21-28.1l12.7,18.5L276.2,99.8z M253.4,97.8
		l21.8,0l5.5-7.7l-10.3-15L253.4,97.8z"/>
</g>
<g>
	<polygon class="st0" points="324.9,45.5 308.5,69.3 292.1,45.5 	"/>
	<linearGradient id="SVGID_8_" gradientUnits="userSpaceOnUse" x1="290.2109" y1="57.7929" x2="326.835" y2="57.7929">
		<stop  offset="0" style="stop-color:#EEEBE9"/>
		<stop  offset="0" style="stop-color:#E7E3E0"/>
		<stop  offset="6.164776e-02" style="stop-color:#D9D5D4"/>
		<stop  offset="0.1794" style="stop-color:#B4B0B3"/>
		<stop  offset="0.264" style="stop-color:#989398"/>
		<stop  offset="0.5225" style="stop-color:#F8F8F8"/>
		<stop  offset="0.5875" style="stop-color:#E9E8E9"/>
		<stop  offset="0.7124" style="stop-color:#C3C0C3"/>
		<stop  offset="0.8764" style="stop-color:#8C878A"/>
		<stop  offset="1" style="stop-color:#DADADA"/>
		<stop  offset="1" style="stop-color:#B2B2B2"/>
	</linearGradient>
	<path class="st8" d="M308.5,71.1l-18.3-26.6h36.6L308.5,71.1z M294,46.5l14.5,21.1L323,46.5H294z"/>
</g>
<g>
	<polygon class="st0" points="106.8,48.1 112.8,33.5 99.4,26.3 77.3,81 75.5,85.4 51.6,26.3 38.3,33.5 71,114.3 71,114.3 80,114.3 
		80,114.3 86.2,99.1 106.9,48.2 	"/>
	<linearGradient id="SVGID_9_" gradientUnits="userSpaceOnUse" x1="37.0488" y1="70.0984" x2="114.0137" y2="70.0984">
		<stop  offset="0" style="stop-color:#EEEBE9"/>
		<stop  offset="0" style="stop-color:#E7E3E0"/>
		<stop  offset="6.164776e-02" style="stop-color:#D9D5D4"/>
		<stop  offset="0.1794" style="stop-color:#B4B0B3"/>
		<stop  offset="0.264" style="stop-color:#989398"/>
		<stop  offset="0.5225" style="stop-color:#F8F8F8"/>
		<stop  offset="0.5875" style="stop-color:#E9E8E9"/>
		<stop  offset="0.7124" style="stop-color:#C3C0C3"/>
		<stop  offset="0.8764" style="stop-color:#8C878A"/>
		<stop  offset="1" style="stop-color:#DADADA"/>
		<stop  offset="1" style="stop-color:#B2B2B2"/>
	</linearGradient>
	<path class="st9" d="M80.7,115.3H70.4l-0.3-0.6L37,33l15.1-8.1l23.4,57.8l0.8-2.1l22.6-55.7L114,33l-5.9,14.6l0,0l-0.3,0.9
		L80.7,115.3z M71.7,113.3h7.6l5.9-14.5l20.4-50.2l0.3-0.8l5.6-13.8L100,27.7L75.5,88L51.1,27.7L39.6,34L71.7,113.3z"/>
</g>
<g>
	<g>
		<polygon class="st0" points="471.4,91.2 480,78.7 488.6,91.2 		"/>
		<linearGradient id="SVGID_10_" gradientUnits="userSpaceOnUse" x1="469.4956" y1="84.5624" x2="490.5269" y2="84.5624">
			<stop  offset="0" style="stop-color:#EEEBE9"/>
			<stop  offset="0" style="stop-color:#E7E3E0"/>
			<stop  offset="6.164776e-02" style="stop-color:#D9D5D4"/>
			<stop  offset="0.1794" style="stop-color:#B4B0B3"/>
			<stop  offset="0.264" style="stop-color:#989398"/>
			<stop  offset="0.5225" style="stop-color:#F8F8F8"/>
			<stop  offset="0.5875" style="stop-color:#E9E8E9"/>
			<stop  offset="0.7124" style="stop-color:#C3C0C3"/>
			<stop  offset="0.8764" style="stop-color:#8C878A"/>
			<stop  offset="1" style="stop-color:#DADADA"/>
			<stop  offset="1" style="stop-color:#B2B2B2"/>
		</linearGradient>
		<path class="st10" d="M490.5,92.2h-21L480,76.9L490.5,92.2z M473.3,90.2h13.4l-6.7-9.8L473.3,90.2z"/>
	</g>
	<g>
		<polygon class="st0" points="469.4,41.5 475.5,26.3 475.5,26.3 484.5,26.3 484.5,26.3 517.2,107.1 503.9,114.3 480,55.2 
			478.2,59.6 456.1,114.3 442.8,107.1 448.7,92.5 		"/>
		<linearGradient id="SVGID_11_" gradientUnits="userSpaceOnUse" x1="441.5298" y1="70.509" x2="518.4937" y2="70.509">
			<stop  offset="0" style="stop-color:#EEEBE9"/>
			<stop  offset="0" style="stop-color:#E7E3E0"/>
			<stop  offset="6.164776e-02" style="stop-color:#D9D5D4"/>
			<stop  offset="0.1794" style="stop-color:#B4B0B3"/>
			<stop  offset="0.264" style="stop-color:#989398"/>
			<stop  offset="0.5225" style="stop-color:#F8F8F8"/>
			<stop  offset="0.5875" style="stop-color:#E9E8E9"/>
			<stop  offset="0.7124" style="stop-color:#C3C0C3"/>
			<stop  offset="0.8764" style="stop-color:#8C878A"/>
			<stop  offset="1" style="stop-color:#DADADA"/>
			<stop  offset="1" style="stop-color:#B2B2B2"/>
		</linearGradient>
		<path class="st11" d="M503.4,115.7L480,57.9l-0.8,2.1l-22.6,55.7l-15.1-8.1l33.3-82.2h10.3l0.3,0.6l33.1,81.6L503.4,115.7z
			 M444.1,106.7l11.5,6.2L480,52.6l24.4,60.3l11.5-6.2l-32.1-79.3h-7.6L444.1,106.7z"/>
	</g>
</g>
<g>
	<rect x="245.9" y="134.1" class="st12" width="107.4" height="8.5"/>
	<linearGradient id="SVGID_12_" gradientUnits="userSpaceOnUse" x1="244.8535" y1="138.394" x2="354.2739" y2="138.394">
		<stop  offset="0" style="stop-color:#EEEBE9"/>
		<stop  offset="0" style="stop-color:#E7E3E0"/>
		<stop  offset="6.164776e-02" style="stop-color:#D9D5D4"/>
		<stop  offset="0.1794" style="stop-color:#B4B0B3"/>
		<stop  offset="0.264" style="stop-color:#989398"/>
		<stop  offset="0.5225" style="stop-color:#F8F8F8"/>
		<stop  offset="0.5875" style="stop-color:#E9E8E9"/>
		<stop  offset="0.7124" style="stop-color:#C3C0C3"/>
		<stop  offset="0.8764" style="stop-color:#8C878A"/>
		<stop  offset="1" style="stop-color:#DADADA"/>
		<stop  offset="1" style="stop-color:#B2B2B2"/>
	</linearGradient>
	<path class="st13" d="M354.3,143.6H244.9v-10.5h109.4V143.6z M246.9,141.6h105.4v-6.5H246.9V141.6z"/>
</g>
<g>
	<rect x="399.2" y="134.1" class="st12" width="107.4" height="8.5"/>
	<linearGradient id="SVGID_13_" gradientUnits="userSpaceOnUse" x1="398.2251" y1="138.394" x2="507.646" y2="138.394">
		<stop  offset="0" style="stop-color:#EEEBE9"/>
		<stop  offset="0" style="stop-color:#E7E3E0"/>
		<stop  offset="6.164776e-02" style="stop-color:#D9D5D4"/>
		<stop  offset="0.1794" style="stop-color:#B4B0B3"/>
		<stop  offset="0.264" style="stop-color:#989398"/>
		<stop  offset="0.5225" style="stop-color:#F8F8F8"/>
		<stop  offset="0.5875" style="stop-color:#E9E8E9"/>
		<stop  offset="0.7124" style="stop-color:#C3C0C3"/>
		<stop  offset="0.8764" style="stop-color:#8C878A"/>
		<stop  offset="1" style="stop-color:#DADADA"/>
		<stop  offset="1" style="stop-color:#B2B2B2"/>
	</linearGradient>
	<path class="st14" d="M507.6,143.6H398.2v-10.5h109.4V143.6z M400.2,141.6h105.4v-6.5H400.2V141.6z"/>
</g>
<g>
	<polygon class="st0" points="369.5,163 355.7,163 367.5,134.1 381.3,134.1 	"/>
	<linearGradient id="SVGID_14_" gradientUnits="userSpaceOnUse" x1="354.2525" y1="148.5815" x2="382.7554" y2="148.5815">
		<stop  offset="0" style="stop-color:#EEEBE9"/>
		<stop  offset="0" style="stop-color:#E7E3E0"/>
		<stop  offset="6.164776e-02" style="stop-color:#D9D5D4"/>
		<stop  offset="0.1794" style="stop-color:#B4B0B3"/>
		<stop  offset="0.264" style="stop-color:#989398"/>
		<stop  offset="0.5225" style="stop-color:#F8F8F8"/>
		<stop  offset="0.5875" style="stop-color:#E9E8E9"/>
		<stop  offset="0.7124" style="stop-color:#C3C0C3"/>
		<stop  offset="0.8764" style="stop-color:#8C878A"/>
		<stop  offset="1" style="stop-color:#DADADA"/>
		<stop  offset="1" style="stop-color:#B2B2B2"/>
	</linearGradient>
	<path class="st15" d="M370.2,164l-15.9,0l12.5-30.9h16L370.2,164z M357.2,162l11.6,0l10.9-26.9h-11.6L357.2,162z"/>
</g>
<g>
	<polygon class="st0" points="363.3,193.7 393.8,149.2 381.2,149.2 	"/>
	<linearGradient id="SVGID_15_" gradientUnits="userSpaceOnUse" x1="358.9175" y1="174.9612" x2="395.6558" y2="174.9612">
		<stop  offset="0" style="stop-color:#EEEBE9"/>
		<stop  offset="0" style="stop-color:#E7E3E0"/>
		<stop  offset="6.164776e-02" style="stop-color:#D9D5D4"/>
		<stop  offset="0.1794" style="stop-color:#B4B0B3"/>
		<stop  offset="0.264" style="stop-color:#989398"/>
		<stop  offset="0.5225" style="stop-color:#F8F8F8"/>
		<stop  offset="0.5875" style="stop-color:#E9E8E9"/>
		<stop  offset="0.7124" style="stop-color:#C3C0C3"/>
		<stop  offset="0.8764" style="stop-color:#8C878A"/>
		<stop  offset="1" style="stop-color:#DADADA"/>
		<stop  offset="1" style="stop-color:#B2B2B2"/>
	</linearGradient>
	<path class="st16" d="M358.9,201.8l21.6-53.6h15.1L358.9,201.8z M381.9,150.2l-14.3,35.4l24.3-35.4H381.9z"/>
</g>
<g>
	<path class="st0" d="M523.5,48.2v64.3l-7.2,8v20.7l22.7-24.9v-1.8V100l10.1-12l18.2,26.5h17.2l-25.8-37.8l23.7-28.5H523.5z
		 M539.1,79.6v-16h13.3L539.1,79.6z"/>
	<linearGradient id="SVGID_16_" gradientUnits="userSpaceOnUse" x1="515.3872" y1="95.5275" x2="586.4946" y2="95.5275">
		<stop  offset="0" style="stop-color:#EEEBE9"/>
		<stop  offset="0" style="stop-color:#E7E3E0"/>
		<stop  offset="6.164776e-02" style="stop-color:#D9D5D4"/>
		<stop  offset="0.1794" style="stop-color:#B4B0B3"/>
		<stop  offset="0.264" style="stop-color:#989398"/>
		<stop  offset="0.5225" style="stop-color:#F8F8F8"/>
		<stop  offset="0.5875" style="stop-color:#E9E8E9"/>
		<stop  offset="0.7124" style="stop-color:#C3C0C3"/>
		<stop  offset="0.8764" style="stop-color:#8C878A"/>
		<stop  offset="1" style="stop-color:#DADADA"/>
		<stop  offset="1" style="stop-color:#B2B2B2"/>
	</linearGradient>
	<path class="st17" d="M515.4,143.8v-23.7l7.2-8V47.2h62.1L560,76.8l26.5,38.7h-19.6l-17.7-25.9l-9,10.7v16.4L515.4,143.8z
		 M517.4,120.9v17.8l20.7-22.7V99.7l11.2-13.3l18.6,27.2h14.8l-25.2-36.8l22.8-27.5h-55.8v63.7L517.4,120.9z M538.1,82.4V62.6h16.4
		L538.1,82.4z M540.1,64.6v12.2l10.2-12.2H540.1z"/>
</g>
</svg>
