<svg width="200" height="180" viewBox="0 0 200 180" fill="none" xmlns="http://www.w3.org/2000/svg">
  <path fill-rule="evenodd" clip-rule="evenodd" d="M158.678 6.9185C157.296 6.46098 145.092 2.51727 127.646 0.0362339C126.258 8.20733 114.489 14.5885 100.175 14.5885C85.8407 14.5885 74.0579 8.18845 72.6987 0C54.7426 2.53135 42.2783 6.62856 41.3373 6.94299L0 31.0539L21.7804 68.2757L40.6279 57.243L38.7626 180H161.55L159.687 57.4278L178.219 68.2761L200 31.0548L158.678 6.9185ZM156.822 11.5747C154.803 10.9217 144.978 7.87157 130.949 5.5986C128.857 9.52162 125.2 12.6092 121.111 14.7905C115.379 17.8488 108.027 19.5911 100.175 19.5911C92.3121 19.5911 84.9503 17.8438 79.2135 14.7768C75.1227 12.5898 71.4651 9.4933 69.3805 5.55966C54.6763 7.9245 44.5377 11.1571 43.0686 11.6393L6.84306 32.8445L23.5707 61.4314L45.7639 48.4402L43.8409 174.997H156.471L154.551 48.6248L176.429 61.4318L193.157 32.8453L156.822 11.5747Z" fill="white"/>
  <path d="M135.044 9.67712V49.3772H151.925V54.3797H135.044L135.044 172.885H130.042L130.042 54.3797H48.1396V49.3772H130.042V9.67712H135.044Z" fill="white"/>
  <path fill-rule="evenodd" clip-rule="evenodd" d="M65.6363 76.8714L67.3169 82.2141H71.4282L64.4659 61.2634H59.5443L52.522 82.2141H56.5433L58.1939 76.8714H65.6363ZM61.8251 64.8653H61.9751L64.676 73.4797H59.1542L61.8251 64.8653Z" fill="white"/>
  <path fill-rule="evenodd" clip-rule="evenodd" d="M104.094 158.228V167.923H125.041V157.297C125.041 156.517 124.891 155.797 124.591 155.136C124.27 154.476 123.84 153.906 123.3 153.425C122.76 152.945 122.13 152.575 121.41 152.315C120.669 152.035 119.879 151.895 119.039 151.895C118.138 151.895 117.388 152.045 116.788 152.345C116.168 152.645 115.668 153.025 115.288 153.485C114.887 153.926 114.597 154.416 114.417 154.956C114.237 155.476 114.147 155.967 114.147 156.427H113.967C113.947 155.947 113.847 155.486 113.667 155.046C113.487 154.586 113.217 154.186 112.857 153.846C112.497 153.485 112.046 153.205 111.506 153.005C110.946 152.785 110.266 152.675 109.466 152.675C108.665 152.675 107.935 152.805 107.275 153.065C106.595 153.305 106.025 153.666 105.564 154.146C105.104 154.626 104.744 155.216 104.484 155.917C104.224 156.597 104.094 157.367 104.094 158.228ZM121.68 158.438V163.961H116.068V158.438C116.068 157.678 116.268 157.087 116.668 156.667C117.068 156.247 117.638 156.037 118.379 156.037H119.399C120.139 156.037 120.709 156.247 121.109 156.667C121.49 157.087 121.68 157.678 121.68 158.438ZM112.827 159.068V163.961H107.455V159.068C107.455 158.348 107.655 157.788 108.055 157.387C108.435 156.987 108.975 156.787 109.676 156.787H110.606C111.306 156.787 111.856 156.987 112.257 157.387C112.637 157.788 112.827 158.348 112.827 159.068Z" fill="white"/>
</svg>
